<svg xmlns="http://www.w3.org/2000/svg" width="506" height="333" viewBox="0 0 506 333">
  <defs>
    <style>
      .box { rx: 12; ry: 12; stroke: #444; stroke-width: 1.5; }
      .label { font-family: 'Segoe UI', Arial, sans-serif; font-size: 16px; fill: #1f1f1f; }
      .caption { font-family: 'Segoe UI', Arial, sans-serif; font-size: 13px; fill: #333; }
      .arrow { stroke: #767676; stroke-width: 2; marker-end: url(#arrowhead); }
    </style>
    <marker id="arrowhead" markerWidth="8" markerHeight="8" refX="4" refY="4" orient="auto" markerUnits="strokeWidth">
      <polygon points="0 0, 8 4, 0 8" fill="#767676" />
    </marker>
  </defs>
  <rect x="138" y="10" width="230" height="46" class="box" fill="#e0c6de" />
  <rect x="138" y="74" width="230" height="46" class="box" fill="#cfd8f3" />
  <rect x="138" y="138" width="230" height="46" class="box" fill="#bdd7ee" />
  <rect x="138" y="202" width="230" height="46" class="box" fill="#bdd7ee" />
  <rect x="138" y="266" width="230" height="46" class="box" fill="#bdd7ee" />
  <line x1="253" y1="56" x2="253" y2="74" class="arrow" />
  <line x1="253" y1="120" x2="253" y2="138" class="arrow" />
  <line x1="253" y1="184" x2="253" y2="202" class="arrow" />
  <line x1="253" y1="248" x2="253" y2="266" class="arrow" />
  <text x="253" y="38" class="label" text-anchor="middle">Power Apps (V2)</text>
  <text x="253" y="102" class="label" text-anchor="middle">Compose - Timestamp</text>
  <text x="253" y="166" class="label" text-anchor="middle">Get items - Applications</text>
  <text x="253" y="230" class="label" text-anchor="middle">Get items - Actions</text>
  <text x="253" y="294" class="label" text-anchor="middle">Create item - Analytics</text>
  <text x="253" y="60" class="caption" text-anchor="middle">Trigger with parameters</text>
  <text x="253" y="124" class="caption" text-anchor="middle">Stamp utcNow()</text>
  <text x="253" y="188" class="caption" text-anchor="middle">Resolve app metadata</text>
  <text x="253" y="252" class="caption" text-anchor="middle">Resolve action metadata</text>
  <text x="253" y="316" class="caption" text-anchor="middle">Write to analytics list</text>
</svg>
